<mxfile host="app.diagrams.net" modified="2023-03-29T20:31:13.304Z" agent="Mozilla/5.0 (X11; CrOS x86_64 14541.0.0) AppleWebKit/537.36 (KHTML, like Gecko) Chrome/111.0.0.0 Safari/537.36" etag="SR0F6XGwopHo6r4VZ82r" version="21.1.1" type="github">
  <diagram name="Page-1" id="KdyZQm44QTGy5TwE-AH9">
    <mxGraphModel dx="1032" dy="577" grid="1" gridSize="10" guides="1" tooltips="1" connect="1" arrows="1" fold="1" page="1" pageScale="1" pageWidth="850" pageHeight="1100" math="0" shadow="0">
      <root>
        <mxCell id="0" />
        <mxCell id="1" parent="0" />
        <mxCell id="-dOC0UTYTpTgAeae-LNB-1" value="&lt;b&gt;Trees&lt;/b&gt;&lt;br&gt;Producers" style="rounded=0;whiteSpace=wrap;html=1;fillColor=#d5e8d4;strokeColor=#82b366;" vertex="1" parent="1">
          <mxGeometry x="70" y="400" width="120" height="40" as="geometry" />
        </mxCell>
      </root>
    </mxGraphModel>
  </diagram>
</mxfile>
